<mxfile host="app.diagrams.net" agent="Mozilla/5.0 (Windows NT 10.0; Win64; x64) AppleWebKit/537.36 (KHTML, like Gecko) Chrome/129.0.0.0 Safari/537.36 Edg/129.0.0.0" version="24.7.17">
  <diagram name="Page-1" id="LEKixuL0RZr2CF4qyq_7">
    <mxGraphModel dx="1186" dy="753" grid="1" gridSize="10" guides="1" tooltips="1" connect="1" arrows="1" fold="1" page="1" pageScale="1" pageWidth="850" pageHeight="1100" math="0" shadow="0">
      <root>
        <mxCell id="0" />
        <mxCell id="1" parent="0" />
        <mxCell id="vEi8x9JW135LUDFCunV6-3" value=":GUI" style="shape=umlLifeline;perimeter=lifelinePerimeter;whiteSpace=wrap;html=1;container=1;collapsible=0;recursiveResize=0;outlineConnect=0;rounded=1;shadow=0;comic=0;labelBackgroundColor=none;strokeWidth=1;fontFamily=Verdana;fontSize=12;align=center;" parent="1" vertex="1">
          <mxGeometry x="240" y="80" width="100" height="870" as="geometry" />
        </mxCell>
        <mxCell id="vEi8x9JW135LUDFCunV6-4" value="" style="html=1;points=[];perimeter=orthogonalPerimeter;rounded=0;shadow=0;comic=0;labelBackgroundColor=none;strokeWidth=1;fontFamily=Verdana;fontSize=12;align=center;" parent="vEi8x9JW135LUDFCunV6-3" vertex="1">
          <mxGeometry x="45" y="100" width="10" height="760" as="geometry" />
        </mxCell>
        <mxCell id="vEi8x9JW135LUDFCunV6-5" value="&lt;span style=&quot;font-size: 11px;&quot;&gt;Submits&amp;nbsp;&lt;br&gt;their answers&lt;/span&gt;" style="html=1;verticalAlign=bottom;endArrow=block;entryX=0;entryY=0;labelBackgroundColor=none;fontFamily=Verdana;fontSize=12;edgeStyle=elbowEdgeStyle;elbow=vertical;" parent="vEi8x9JW135LUDFCunV6-3" edge="1">
          <mxGeometry relative="1" as="geometry">
            <mxPoint x="-86" y="322" as="sourcePoint" />
            <mxPoint x="44" y="322" as="targetPoint" />
          </mxGeometry>
        </mxCell>
        <mxCell id="vEi8x9JW135LUDFCunV6-72" value="" style="html=1;verticalAlign=bottom;labelBackgroundColor=none;endArrow=block;endFill=1;dashed=1;rounded=0;exitX=-0.067;exitY=0.657;exitDx=0;exitDy=0;exitPerimeter=0;" parent="vEi8x9JW135LUDFCunV6-3" edge="1">
          <mxGeometry width="160" relative="1" as="geometry">
            <mxPoint x="44.32999999999993" y="690.3200000000002" as="sourcePoint" />
            <mxPoint x="-80" y="691" as="targetPoint" />
          </mxGeometry>
        </mxCell>
        <mxCell id="vEi8x9JW135LUDFCunV6-73" value="Update GUI to show&lt;br&gt;&quot;Check Assessment&quot;&lt;br&gt;&amp;nbsp;button for the user" style="edgeLabel;html=1;align=center;verticalAlign=middle;resizable=0;points=[];" parent="vEi8x9JW135LUDFCunV6-72" vertex="1" connectable="0">
          <mxGeometry x="0.1008" y="-1" relative="1" as="geometry">
            <mxPoint x="4" y="-23" as="offset" />
          </mxGeometry>
        </mxCell>
        <mxCell id="vEi8x9JW135LUDFCunV6-76" value="" style="html=1;verticalAlign=bottom;labelBackgroundColor=none;endArrow=block;endFill=1;dashed=1;rounded=0;exitX=-0.067;exitY=0.657;exitDx=0;exitDy=0;exitPerimeter=0;entryX=1.067;entryY=0.868;entryDx=0;entryDy=0;entryPerimeter=0;" parent="vEi8x9JW135LUDFCunV6-3" edge="1">
          <mxGeometry width="160" relative="1" as="geometry">
            <mxPoint x="44.99999999999994" y="827.0000000000002" as="sourcePoint" />
            <mxPoint x="-84.32999999999993" y="826.6799999999998" as="targetPoint" />
          </mxGeometry>
        </mxCell>
        <mxCell id="vEi8x9JW135LUDFCunV6-77" value="Assessment info are&lt;br&gt;displayed&amp;nbsp;&lt;br&gt;for the user" style="edgeLabel;html=1;align=center;verticalAlign=middle;resizable=0;points=[];" parent="vEi8x9JW135LUDFCunV6-76" vertex="1" connectable="0">
          <mxGeometry x="0.1008" y="-1" relative="1" as="geometry">
            <mxPoint x="4" y="-23" as="offset" />
          </mxGeometry>
        </mxCell>
        <mxCell id="vEi8x9JW135LUDFCunV6-70" value="&lt;span style=&quot;font-size: 11px;&quot;&gt;Enables needed&lt;br&gt;buttons and &lt;br&gt;information&lt;br&gt;display&lt;/span&gt;" style="html=1;verticalAlign=bottom;endArrow=block;labelBackgroundColor=none;fontFamily=Verdana;fontSize=12;elbow=vertical;edgeStyle=orthogonalEdgeStyle;curved=1;exitX=1.038;exitY=0.345;exitPerimeter=0;" parent="vEi8x9JW135LUDFCunV6-3" edge="1">
          <mxGeometry x="0.1892" y="-24" relative="1" as="geometry">
            <mxPoint x="45" y="593" as="sourcePoint" />
            <mxPoint x="45" y="631" as="targetPoint" />
            <Array as="points">
              <mxPoint x="-10" y="593" />
              <mxPoint x="-10" y="631" />
            </Array>
            <mxPoint as="offset" />
          </mxGeometry>
        </mxCell>
        <mxCell id="vEi8x9JW135LUDFCunV6-12" value=":Patient" style="shape=umlLifeline;perimeter=lifelinePerimeter;whiteSpace=wrap;html=1;container=1;collapsible=0;recursiveResize=0;outlineConnect=0;rounded=1;shadow=0;comic=0;labelBackgroundColor=none;strokeWidth=1;fontFamily=Verdana;fontSize=12;align=center;" parent="1" vertex="1">
          <mxGeometry x="100" y="80" width="100" height="870" as="geometry" />
        </mxCell>
        <mxCell id="vEi8x9JW135LUDFCunV6-13" value="" style="html=1;points=[];perimeter=orthogonalPerimeter;rounded=0;shadow=0;comic=0;labelBackgroundColor=none;strokeWidth=1;fontFamily=Verdana;fontSize=12;align=center;" parent="vEi8x9JW135LUDFCunV6-12" vertex="1">
          <mxGeometry x="45" y="100" width="10" height="760" as="geometry" />
        </mxCell>
        <mxCell id="vEi8x9JW135LUDFCunV6-16" value="&lt;span style=&quot;font-size: 11px;&quot;&gt;Clicks &quot;Virtual&lt;br&gt;Assessment&quot; button&lt;/span&gt;" style="html=1;verticalAlign=bottom;endArrow=block;entryX=0;entryY=0;labelBackgroundColor=none;fontFamily=Verdana;fontSize=12;edgeStyle=elbowEdgeStyle;elbow=vertical;" parent="1" edge="1">
          <mxGeometry relative="1" as="geometry">
            <mxPoint x="155" y="188" as="sourcePoint" />
            <mxPoint x="285" y="188.00000000000534" as="targetPoint" />
          </mxGeometry>
        </mxCell>
        <mxCell id="vEi8x9JW135LUDFCunV6-17" value=":Patients Database" style="shape=umlLifeline;perimeter=lifelinePerimeter;whiteSpace=wrap;html=1;container=1;collapsible=0;recursiveResize=0;outlineConnect=0;rounded=1;shadow=0;comic=0;labelBackgroundColor=none;strokeWidth=1;fontFamily=Verdana;fontSize=12;align=center;" parent="1" vertex="1">
          <mxGeometry x="707" y="80" width="130" height="880" as="geometry" />
        </mxCell>
        <mxCell id="vEi8x9JW135LUDFCunV6-18" value="" style="html=1;points=[];perimeter=orthogonalPerimeter;rounded=0;shadow=0;comic=0;labelBackgroundColor=none;strokeWidth=1;fontFamily=Verdana;fontSize=12;align=center;" parent="vEi8x9JW135LUDFCunV6-17" vertex="1">
          <mxGeometry x="60" y="440" width="10" height="100" as="geometry" />
        </mxCell>
        <mxCell id="vEi8x9JW135LUDFCunV6-62" value="" style="endArrow=classic;html=1;rounded=0;entryX=0.433;entryY=0.919;entryDx=0;entryDy=0;entryPerimeter=0;" parent="vEi8x9JW135LUDFCunV6-17" edge="1">
          <mxGeometry width="50" height="50" relative="1" as="geometry">
            <mxPoint x="-97" y="458.89" as="sourcePoint" />
            <mxPoint x="57.32999999999993" y="458.5000000000001" as="targetPoint" />
          </mxGeometry>
        </mxCell>
        <mxCell id="vEi8x9JW135LUDFCunV6-63" value="Stores results and &lt;br&gt;suggestions into database" style="edgeLabel;html=1;align=center;verticalAlign=middle;resizable=0;points=[];" parent="vEi8x9JW135LUDFCunV6-62" vertex="1" connectable="0">
          <mxGeometry x="-0.5558" y="-3" relative="1" as="geometry">
            <mxPoint x="40" y="-18" as="offset" />
          </mxGeometry>
        </mxCell>
        <mxCell id="vEi8x9JW135LUDFCunV6-64" value="" style="html=1;verticalAlign=bottom;labelBackgroundColor=none;endArrow=block;endFill=1;dashed=1;rounded=0;entryX=1;entryY=0.96;entryDx=0;entryDy=0;entryPerimeter=0;" parent="vEi8x9JW135LUDFCunV6-17" edge="1">
          <mxGeometry width="160" relative="1" as="geometry">
            <mxPoint x="60" y="538" as="sourcePoint" />
            <mxPoint x="-97" y="538" as="targetPoint" />
          </mxGeometry>
        </mxCell>
        <mxCell id="vEi8x9JW135LUDFCunV6-65" value="Confirmation of info storing" style="edgeLabel;html=1;align=center;verticalAlign=middle;resizable=0;points=[];" parent="vEi8x9JW135LUDFCunV6-64" vertex="1" connectable="0">
          <mxGeometry x="0.1008" y="-1" relative="1" as="geometry">
            <mxPoint x="12" y="-9" as="offset" />
          </mxGeometry>
        </mxCell>
        <mxCell id="Hc-biCmf0aNUgXZs6N0B-1" value="Processes &lt;br&gt;information" style="html=1;verticalAlign=bottom;endArrow=block;labelBackgroundColor=none;fontFamily=Verdana;fontSize=12;elbow=vertical;edgeStyle=orthogonalEdgeStyle;curved=1;exitX=1.038;exitY=0.345;exitPerimeter=0;" parent="vEi8x9JW135LUDFCunV6-17" edge="1">
          <mxGeometry x="0.1081" y="-50" relative="1" as="geometry">
            <mxPoint x="58" y="473" as="sourcePoint" />
            <mxPoint x="58" y="511" as="targetPoint" />
            <Array as="points">
              <mxPoint x="3" y="473" />
              <mxPoint x="3" y="511" />
            </Array>
            <mxPoint as="offset" />
          </mxGeometry>
        </mxCell>
        <mxCell id="vEi8x9JW135LUDFCunV6-25" value="" style="html=1;verticalAlign=bottom;labelBackgroundColor=none;endArrow=block;endFill=1;dashed=1;rounded=0;entryX=1.133;entryY=0.135;entryDx=0;entryDy=0;entryPerimeter=0;" parent="1" edge="1">
          <mxGeometry width="160" relative="1" as="geometry">
            <mxPoint x="288" y="289" as="sourcePoint" />
            <mxPoint x="154.32999999999993" y="289.6" as="targetPoint" />
          </mxGeometry>
        </mxCell>
        <mxCell id="vEi8x9JW135LUDFCunV6-26" value="Display a new window&amp;nbsp;&lt;br&gt;with the questions" style="edgeLabel;html=1;align=center;verticalAlign=middle;resizable=0;points=[];" parent="vEi8x9JW135LUDFCunV6-25" vertex="1" connectable="0">
          <mxGeometry x="0.1008" y="-1" relative="1" as="geometry">
            <mxPoint x="7" y="-17" as="offset" />
          </mxGeometry>
        </mxCell>
        <mxCell id="vEi8x9JW135LUDFCunV6-29" value=":Virtual Triage" style="shape=umlLifeline;perimeter=lifelinePerimeter;whiteSpace=wrap;html=1;container=1;collapsible=0;recursiveResize=0;outlineConnect=0;rounded=1;shadow=0;comic=0;labelBackgroundColor=none;strokeWidth=1;fontFamily=Verdana;fontSize=12;align=center;" parent="1" vertex="1">
          <mxGeometry x="379" y="80" width="130" height="880" as="geometry" />
        </mxCell>
        <mxCell id="vEi8x9JW135LUDFCunV6-30" value="" style="html=1;points=[];perimeter=orthogonalPerimeter;rounded=0;shadow=0;comic=0;labelBackgroundColor=none;strokeWidth=1;fontFamily=Verdana;fontSize=12;align=center;" parent="vEi8x9JW135LUDFCunV6-29" vertex="1">
          <mxGeometry x="60" y="97" width="10" height="363" as="geometry" />
        </mxCell>
        <mxCell id="vEi8x9JW135LUDFCunV6-59" value="Processes&amp;nbsp;&lt;br&gt;answers and&lt;br&gt;generates&lt;br&gt;results" style="html=1;verticalAlign=bottom;endArrow=block;labelBackgroundColor=none;fontFamily=Verdana;fontSize=12;elbow=vertical;edgeStyle=orthogonalEdgeStyle;curved=1;exitX=1.038;exitY=0.345;exitPerimeter=0;" parent="vEi8x9JW135LUDFCunV6-29" edge="1">
          <mxGeometry x="0.2568" y="36" relative="1" as="geometry">
            <mxPoint x="70" y="370" as="sourcePoint" />
            <mxPoint x="70" y="408" as="targetPoint" />
            <Array as="points">
              <mxPoint x="125" y="370" />
              <mxPoint x="125" y="408" />
            </Array>
            <mxPoint x="36" y="-34" as="offset" />
          </mxGeometry>
        </mxCell>
        <mxCell id="vEi8x9JW135LUDFCunV6-45" value=":Assessment &lt;br&gt;Results" style="shape=umlLifeline;perimeter=lifelinePerimeter;whiteSpace=wrap;html=1;container=1;collapsible=0;recursiveResize=0;outlineConnect=0;rounded=1;shadow=0;comic=0;labelBackgroundColor=none;strokeWidth=1;fontFamily=Verdana;fontSize=12;align=center;" parent="1" vertex="1">
          <mxGeometry x="540" y="80" width="130" height="880" as="geometry" />
        </mxCell>
        <mxCell id="vEi8x9JW135LUDFCunV6-46" value="" style="html=1;points=[];perimeter=orthogonalPerimeter;rounded=0;shadow=0;comic=0;labelBackgroundColor=none;strokeWidth=1;fontFamily=Verdana;fontSize=12;align=center;" parent="vEi8x9JW135LUDFCunV6-45" vertex="1">
          <mxGeometry x="60" y="420" width="10" height="160" as="geometry" />
        </mxCell>
        <mxCell id="vEi8x9JW135LUDFCunV6-67" value="" style="html=1;verticalAlign=bottom;labelBackgroundColor=none;endArrow=block;endFill=1;dashed=1;rounded=0;" parent="vEi8x9JW135LUDFCunV6-45" edge="1">
          <mxGeometry width="160" relative="1" as="geometry">
            <mxPoint x="60" y="564" as="sourcePoint" />
            <mxPoint x="-250.5" y="564" as="targetPoint" />
          </mxGeometry>
        </mxCell>
        <mxCell id="vEi8x9JW135LUDFCunV6-68" value="Informs the GUI that the information are ready for&lt;br&gt;display" style="edgeLabel;html=1;align=center;verticalAlign=middle;resizable=0;points=[];" parent="vEi8x9JW135LUDFCunV6-67" vertex="1" connectable="0">
          <mxGeometry x="0.1008" y="-1" relative="1" as="geometry">
            <mxPoint x="15" y="-19" as="offset" />
          </mxGeometry>
        </mxCell>
        <mxCell id="vEi8x9JW135LUDFCunV6-52" value="" style="endArrow=classic;html=1;rounded=0;exitX=0.867;exitY=0.04;exitDx=0;exitDy=0;exitPerimeter=0;" parent="1" source="vEi8x9JW135LUDFCunV6-4" target="vEi8x9JW135LUDFCunV6-29" edge="1">
          <mxGeometry width="50" height="50" relative="1" as="geometry">
            <mxPoint x="400" y="370" as="sourcePoint" />
            <mxPoint x="450" y="320" as="targetPoint" />
          </mxGeometry>
        </mxCell>
        <mxCell id="vEi8x9JW135LUDFCunV6-53" value="Requests to gather series&lt;br&gt;of questions" style="edgeLabel;html=1;align=center;verticalAlign=middle;resizable=0;points=[];" parent="vEi8x9JW135LUDFCunV6-52" vertex="1" connectable="0">
          <mxGeometry x="-0.1012" y="3" relative="1" as="geometry">
            <mxPoint x="7" y="-14" as="offset" />
          </mxGeometry>
        </mxCell>
        <mxCell id="vEi8x9JW135LUDFCunV6-55" value="" style="html=1;verticalAlign=bottom;labelBackgroundColor=none;endArrow=block;endFill=1;dashed=1;rounded=0;entryX=1;entryY=0.067;entryDx=0;entryDy=0;entryPerimeter=0;" parent="1" edge="1">
          <mxGeometry width="160" relative="1" as="geometry">
            <mxPoint x="435" y="260" as="sourcePoint" />
            <mxPoint x="300" y="261" as="targetPoint" />
          </mxGeometry>
        </mxCell>
        <mxCell id="vEi8x9JW135LUDFCunV6-56" value="Provide series of fixed&amp;nbsp;&lt;br&gt;questions" style="edgeLabel;html=1;align=center;verticalAlign=middle;resizable=0;points=[];" parent="vEi8x9JW135LUDFCunV6-55" vertex="1" connectable="0">
          <mxGeometry x="0.1008" y="-1" relative="1" as="geometry">
            <mxPoint x="7" y="-17" as="offset" />
          </mxGeometry>
        </mxCell>
        <mxCell id="vEi8x9JW135LUDFCunV6-57" value="&lt;span style=&quot;font-size: 11px;&quot;&gt;Sends the answer&lt;/span&gt;" style="html=1;verticalAlign=bottom;endArrow=block;entryX=0;entryY=0;labelBackgroundColor=none;fontFamily=Verdana;fontSize=12;edgeStyle=elbowEdgeStyle;elbow=vertical;exitX=1.067;exitY=0.252;exitDx=0;exitDy=0;exitPerimeter=0;" parent="1" edge="1">
          <mxGeometry relative="1" as="geometry">
            <mxPoint x="295.6700000000001" y="434.52" as="sourcePoint" />
            <mxPoint x="435" y="434" as="targetPoint" />
          </mxGeometry>
        </mxCell>
        <mxCell id="vEi8x9JW135LUDFCunV6-60" value="" style="endArrow=classic;html=1;rounded=0;entryX=0.433;entryY=0.919;entryDx=0;entryDy=0;entryPerimeter=0;" parent="1" edge="1">
          <mxGeometry width="50" height="50" relative="1" as="geometry">
            <mxPoint x="449" y="527" as="sourcePoint" />
            <mxPoint x="603.3299999999999" y="526.6100000000001" as="targetPoint" />
          </mxGeometry>
        </mxCell>
        <mxCell id="vEi8x9JW135LUDFCunV6-61" value="Sets assessment results and&amp;nbsp;&lt;br&gt;suggestions" style="edgeLabel;html=1;align=center;verticalAlign=middle;resizable=0;points=[];" parent="vEi8x9JW135LUDFCunV6-60" vertex="1" connectable="0">
          <mxGeometry x="-0.5558" y="-3" relative="1" as="geometry">
            <mxPoint x="40" y="-18" as="offset" />
          </mxGeometry>
        </mxCell>
        <mxCell id="vEi8x9JW135LUDFCunV6-74" value="" style="endArrow=classic;html=1;rounded=0;exitX=1;exitY=0.788;exitDx=0;exitDy=0;exitPerimeter=0;" parent="1" edge="1">
          <mxGeometry width="50" height="50" relative="1" as="geometry">
            <mxPoint x="155" y="845.8800000000001" as="sourcePoint" />
            <mxPoint x="280" y="846" as="targetPoint" />
          </mxGeometry>
        </mxCell>
        <mxCell id="vEi8x9JW135LUDFCunV6-75" value="Clicks &lt;br&gt;&quot;Check Assessment&quot;&lt;br&gt;&amp;nbsp;button to access &lt;br&gt;their results" style="edgeLabel;html=1;align=center;verticalAlign=middle;resizable=0;points=[];" parent="vEi8x9JW135LUDFCunV6-74" vertex="1" connectable="0">
          <mxGeometry x="0.1775" y="-1" relative="1" as="geometry">
            <mxPoint x="-6" y="-31" as="offset" />
          </mxGeometry>
        </mxCell>
        <mxCell id="vEi8x9JW135LUDFCunV6-58" value="&lt;font style=&quot;font-size: 11px;&quot;&gt;User answers&lt;br&gt;questions&lt;/font&gt;" style="html=1;verticalAlign=bottom;endArrow=block;labelBackgroundColor=none;fontFamily=Verdana;fontSize=12;elbow=vertical;edgeStyle=orthogonalEdgeStyle;curved=1;exitX=1.038;exitY=0.345;exitPerimeter=0;" parent="1" edge="1">
          <mxGeometry x="0.1622" y="30" relative="1" as="geometry">
            <mxPoint x="160" y="322" as="sourcePoint" />
            <mxPoint x="160" y="360" as="targetPoint" />
            <Array as="points">
              <mxPoint x="215" y="322" />
              <mxPoint x="215" y="360" />
            </Array>
            <mxPoint as="offset" />
          </mxGeometry>
        </mxCell>
      </root>
    </mxGraphModel>
  </diagram>
</mxfile>
